<?xml version="1.0" standalone="no"?>
<!DOCTYPE svg PUBLIC "-//W3C//DTD SVG 20010904//EN"
 "http://www.w3.org/TR/2001/REC-SVG-20010904/DTD/svg10.dtd">
<svg version="1.0" xmlns="http://www.w3.org/2000/svg"
 width="1120.000000pt" height="630.000000pt" viewBox="0 0 1120.000000 630.000000"
 preserveAspectRatio="xMidYMid meet">

<g transform="translate(0.000000,630.000000) scale(0.100000,-0.100000)"
fill="#000000" stroke="none">
<path d="M9430 6285 c-8 -10 -21 -13 -33 -9 -19 6 -19 5 1 -17 12 -12 19 -25
16 -28 -4 -3 -9 0 -11 7 -6 15 -33 16 -33 0 0 -8 -3 -9 -10 -2 -7 7 -22 0 -46
-23 -20 -18 -42 -33 -50 -33 -8 0 -14 -5 -14 -11 0 -6 -9 -9 -20 -6 -12 3 -17
1 -14 -5 3 -5 0 -9 -7 -7 -8 1 -21 1 -29 0 -13 -1 -13 -2 0 -12 12 -8 12 -12
2 -16 -7 -3 -21 -13 -30 -23 -9 -9 -30 -20 -46 -24 -27 -7 -28 -6 -15 10 13
16 12 16 -8 3 -16 -9 -19 -16 -10 -21 8 -5 8 -8 1 -8 -7 0 -14 -9 -17 -20 -3
-11 -10 -20 -16 -20 -6 0 -8 7 -5 15 4 8 2 15 -4 15 -5 0 -12 -10 -15 -21 -4
-16 -11 -20 -26 -16 -18 4 -19 2 -11 -14 8 -15 7 -17 -5 -13 -14 6 -73 -33
-74 -49 -1 -5 9 -5 22 -2 18 5 17 3 -7 -14 -21 -14 -35 -17 -47 -11 -14 8 -16
6 -11 -13 5 -19 4 -20 -11 -9 -14 12 -20 10 -40 -12 -13 -14 -33 -26 -43 -27
-18 0 -18 -1 1 -9 16 -7 14 -9 -15 -9 -20 -1 -30 -5 -23 -9 7 -4 9 -13 4 -21
-5 -7 -14 -11 -19 -7 -6 4 -16 -1 -21 -11 -28 -48 -29 -49 -46 -28 -14 19 -15
18 -5 -8 7 -20 7 -34 -1 -45 -9 -15 -10 -15 -5 2 5 14 2 17 -10 12 -8 -3 -20
-6 -25 -6 -5 0 -9 -4 -9 -10 0 -5 7 -10 15 -10 8 0 15 -4 15 -10 0 -5 15 -10
33 -10 26 -1 29 -2 15 -11 -12 -7 -24 -6 -37 1 -11 5 -24 10 -30 10 -19 0 -12
-18 9 -25 30 -10 24 -20 -17 -32 l-38 -10 41 -2 c27 -1 46 5 54 15 9 10 26 14
49 12 31 -3 36 0 39 19 2 14 8 20 18 16 8 -3 14 1 14 11 0 18 5 19 68 16 39
-1 42 0 42 24 0 14 -5 26 -11 26 -5 0 -7 5 -3 11 5 8 9 8 14 -1 5 -7 16 -9 29
-5 22 7 22 6 6 -30 -19 -46 -19 -55 -1 -55 8 0 16 10 18 22 2 17 14 26 50 36
47 13 48 13 32 37 -15 23 -15 24 8 30 12 3 43 7 68 8 25 1 50 9 58 17 11 13
14 13 26 -2 15 -21 26 -23 26 -7 0 7 14 25 30 41 17 15 30 35 30 43 0 8 5 15
10 15 6 0 10 -11 10 -25 l0 -25 38 15 c20 9 39 20 40 25 2 6 21 10 43 10 21 0
39 4 39 9 0 5 15 14 33 22 17 7 44 21 59 31 14 10 36 18 47 18 12 0 21 4 21 9
0 5 15 14 33 22 17 7 57 29 87 49 30 20 70 42 88 49 17 8 32 16 32 20 0 9 55
41 69 41 6 0 11 -7 11 -15 0 -8 5 -15 10 -15 6 0 10 4 10 8 0 5 6 17 14 27 12
16 16 17 30 6 14 -12 16 -9 16 23 0 34 2 36 33 36 25 0 39 7 55 30 l23 30
-334 0 c-287 0 -336 -2 -347 -15z m-717 -539 c4 -10 1 -13 -8 -9 -8 3 -12 9
-9 14 7 12 11 11 17 -5z m7 -56 c0 -5 -7 -10 -15 -10 -8 0 -15 5 -15 10 0 6 7
10 15 10 8 0 15 -4 15 -10z"/>
<path d="M9260 6200 c-13 -8 -12 -10 3 -10 9 0 17 5 17 10 0 12 -1 12 -20 0z"/>
<path d="M9120 6109 c0 -5 5 -7 10 -4 6 3 10 8 10 11 0 2 -4 4 -10 4 -5 0 -10
-5 -10 -11z"/>
<path d="M8870 5931 c0 -6 4 -13 10 -16 6 -3 7 1 4 9 -7 18 -14 21 -14 7z"/>
<path d="M8600 5740 c-8 -5 -10 -10 -5 -10 6 0 17 5 25 10 8 5 11 10 5 10 -5
0 -17 -5 -25 -10z"/>
<path d="M8550 5675 c0 -8 2 -15 4 -15 2 0 6 7 10 15 3 8 1 15 -4 15 -6 0 -10
-7 -10 -15z"/>
<path d="M8790 5651 c0 -17 18 -21 24 -6 3 9 0 15 -9 15 -8 0 -15 -4 -15 -9z"/>
<path d="M8458 5623 c6 -2 18 -2 25 0 6 3 1 5 -13 5 -14 0 -19 -2 -12 -5z"/>
<path d="M8640 5590 c0 -5 12 -10 28 -10 21 0 24 2 12 10 -20 13 -40 13 -40 0z"/>
<path d="M8520 5581 c-17 -5 -21 -9 -12 -15 6 -4 22 0 34 8 24 17 19 18 -22 7z"/>
<path d="M5980 5380 c0 -5 4 -10 9 -10 6 0 13 5 16 10 3 6 -1 10 -9 10 -9 0
-16 -4 -16 -10z"/>
<path d="M6025 5356 c-19 -14 -17 -15 25 -16 25 0 63 -5 85 -10 22 -6 83 -14
136 -20 52 -5 115 -12 140 -15 36 -4 40 -4 20 5 -35 15 -22 20 24 10 22 -5 41
-8 42 -6 2 1 -16 12 -40 23 -24 12 -72 23 -112 26 l-70 5 63 -15 c34 -8 62
-19 62 -24 0 -14 -21 -11 -90 11 -34 11 -73 20 -86 20 -12 0 -34 4 -49 10 -19
7 -24 7 -19 -1 4 -8 -3 -9 -25 -5 -17 3 -43 8 -59 11 -16 3 -35 0 -47 -9z"/>
<path d="M6248 5363 c7 -3 16 -2 19 1 4 3 -2 6 -13 5 -11 0 -14 -3 -6 -6z"/>
<path d="M5807 5323 c-9 -2 -14 -9 -11 -15 4 -6 2 -8 -4 -5 -15 10 -112 -14
-105 -26 3 -6 1 -7 -5 -3 -16 10 -62 -4 -62 -19 0 -15 -42 -31 -105 -40 -40
-6 -40 -6 -15 10 15 10 18 14 7 11 -10 -3 -30 -6 -43 -6 -17 0 -23 -4 -18 -12
5 -7 3 -8 -5 -3 -7 4 -52 4 -99 0 -63 -6 -80 -10 -62 -16 l25 -7 -25 -1 c-48
-2 -68 -13 -75 -39 -4 -18 -9 -22 -14 -13 -5 7 -17 11 -27 9 -15 -2 -20 -14
-22 -55 l-3 -52 38 6 c35 6 77 21 113 42 24 14 109 38 195 56 44 9 88 19 98
21 9 3 17 1 17 -3 0 -10 -92 -35 -197 -54 -35 -6 -63 -16 -63 -20 0 -5 -8 -9
-18 -9 -10 0 -22 -4 -28 -9 -15 -14 -104 -40 -163 -47 -41 -5 -60 -14 -82 -37
-16 -16 -26 -33 -24 -37 3 -5 -16 -18 -42 -31 -26 -12 -41 -25 -34 -27 9 -3 8
-7 -3 -16 -24 -18 -5 -39 25 -27 18 7 20 10 6 10 -10 1 -15 6 -12 11 4 6 23
10 43 10 54 -2 103 10 109 26 3 8 17 14 32 14 23 0 69 19 48 20 -22 0 54 50
76 50 14 0 29 5 32 10 3 6 15 10 25 10 11 0 37 9 59 21 22 11 58 20 80 21 31
0 41 4 41 17 0 13 9 15 45 13 25 -2 45 0 45 6 0 5 16 13 36 16 19 4 38 14 41
22 3 7 16 14 29 14 16 0 22 -4 18 -14 -4 -11 6 -16 40 -21 29 -5 46 -12 46
-21 0 -19 49 -18 89 2 19 9 39 13 49 8 15 -6 14 -8 -5 -11 -37 -7 -26 -23 14
-23 20 0 45 8 55 17 19 17 29 12 41 -22 2 -6 15 -5 33 3 27 13 30 12 51 -14
17 -22 24 -25 36 -16 10 9 20 9 40 -1 15 -6 27 -16 27 -20 0 -5 21 -8 48 -7
87 4 112 1 112 -15 0 -13 13 -16 68 -15 110 0 186 -7 190 -19 2 -6 14 -11 27
-11 13 0 27 -4 30 -10 3 -5 16 -10 27 -10 11 0 36 -9 55 -21 22 -14 42 -19 58
-15 18 5 28 0 44 -20 20 -25 58 -30 54 -6 -3 14 24 5 55 -19 19 -15 28 -16 48
-7 18 8 31 8 49 0 33 -15 108 -15 123 0 8 8 15 8 26 -1 24 -20 82 10 89 45 7
33 56 70 126 94 38 13 47 21 49 43 3 21 9 27 27 27 23 0 51 31 38 43 -9 10 23
36 71 57 25 10 46 22 46 26 0 12 -34 33 -52 34 -10 0 -18 4 -18 9 0 6 -12 6
-28 1 -16 -4 -35 -4 -43 -1 -8 4 -38 6 -67 3 -45 -3 -55 -8 -62 -28 -15 -39
-76 -25 -63 15 4 13 3 14 -5 1 -14 -19 -87 -16 -307 10 -44 6 -100 10 -125 11
-38 1 -41 2 -20 9 16 5 -1 7 -45 3 -51 -3 -66 -2 -55 6 19 14 5 14 -20 1 -14
-8 -21 -6 -28 6 -11 20 -30 11 -42 -20 -6 -15 -9 -16 -9 -5 -1 17 -34 24 -159
35 -44 3 -62 2 -57 -5 9 -15 -4 -14 -20 2 -26 27 -427 42 -513 21 -29 -8 -63
-14 -76 -14 -12 0 -26 -3 -30 -7 -4 -5 -11 -8 -14 -9 -4 0 -16 -4 -27 -9 -98
-38 -145 -54 -175 -59 -42 -7 -28 0 74 40 89 34 136 62 136 80 0 17 -17 18
-23 2 -4 -8 -6 -7 -6 4 -1 9 5 19 12 21 15 7 -2 6 -26 0z m-404 -120 c-7 -2
-21 -2 -30 0 -10 3 -4 5 12 5 17 0 24 -2 18 -5z m2080 -10 c-7 -2 -21 -2 -30
0 -10 3 -4 5 12 5 17 0 24 -2 18 -5z m-123 -33 c0 -5 -5 -10 -11 -10 -5 0 -7
5 -4 10 3 6 8 10 11 10 2 0 4 -4 4 -10z m-1440 -50 c0 -5 -5 -10 -11 -10 -5 0
-7 5 -4 10 3 6 8 10 11 10 2 0 4 -4 4 -10z m-47 -17 c-7 -2 -19 -2 -25 0 -7 3
-2 5 12 5 14 0 19 -2 13 -5z m-578 -73 c3 -5 1 -10 -4 -10 -6 0 -11 5 -11 10
0 6 2 10 4 10 3 0 8 -4 11 -10z"/>
<path d="M5980 5310 c-13 -8 -13 -10 2 -10 9 0 20 5 23 10 8 13 -5 13 -25 0z"/>
<path d="M6030 5310 c0 -5 5 -10 10 -10 6 0 10 5 10 10 0 6 -4 10 -10 10 -5 0
-10 -4 -10 -10z"/>
<path d="M7098 5223 c7 -3 16 -2 19 1 4 3 -2 6 -13 5 -11 0 -14 -3 -6 -6z"/>
<path d="M7498 5223 c7 -3 16 -2 19 1 4 3 -2 6 -13 5 -11 0 -14 -3 -6 -6z"/>
<path d="M7173 5213 c15 -2 39 -2 55 0 15 2 2 4 -28 4 -30 0 -43 -2 -27 -4z"/>
<path d="M7395 5190 c-3 -5 -2 -10 4 -10 5 0 13 5 16 10 3 6 2 10 -4 10 -5 0
-13 -4 -16 -10z"/>
<path d="M6020 5039 c0 -5 5 -7 10 -4 6 3 10 8 10 11 0 2 -4 4 -10 4 -5 0 -10
-5 -10 -11z"/>
<path d="M4893 4833 c-7 -2 -12 -17 -12 -31 1 -16 3 -20 6 -10 2 9 13 20 24
23 10 4 19 11 19 16 0 10 -17 11 -37 2z"/>
<path d="M4745 4670 c-3 -5 -1 -10 4 -10 6 0 11 5 11 10 0 6 -2 10 -4 10 -3 0
-8 -4 -11 -10z"/>
<path d="M5590 4624 c0 -7 27 -34 34 -34 13 0 5 16 -14 28 -11 7 -20 10 -20 6z"/>
<path d="M4680 4595 c-7 -9 -8 -15 -2 -15 5 0 12 7 16 15 3 8 4 15 2 15 -2 0
-9 -7 -16 -15z"/>
<path d="M6273 4379 c-4 -4 -33 -12 -63 -17 l-55 -8 39 -13 c32 -11 40 -11 48
0 8 11 9 11 5 -1 -3 -11 -17 -15 -48 -13 l-44 1 45 -13 45 -14 -45 4 c-32 4
-39 2 -25 -4 12 -5 27 -16 34 -25 17 -20 59 -20 85 -1 10 8 24 12 29 8 6 -4 8
0 4 10 -3 8 0 21 8 27 10 8 13 7 12 -2 -1 -32 4 -49 13 -43 5 3 7 13 4 23 -3
9 4 5 15 -10 55 -69 62 -74 37 -28 -26 47 -89 113 -117 123 -9 3 -21 1 -26 -4z"/>
<path d="M3906 4279 c-31 -22 -54 -45 -50 -50 3 -5 0 -8 -6 -7 -6 2 -27 -16
-47 -39 -20 -24 -31 -43 -24 -43 6 0 11 5 11 11 0 6 6 9 13 6 12 -4 83 57 145
126 44 48 29 47 -42 -4z"/>
<path d="M4509 4308 c-1 -2 -3 -14 -4 -28 -1 -14 -5 -38 -9 -55 l-8 -30 15 26
c17 31 27 89 15 89 -4 0 -9 -1 -9 -2z"/>
<path d="M4021 4245 c-17 -20 -31 -43 -31 -52 0 -8 -15 -36 -33 -62 -50 -70
-51 -73 -12 -50 29 17 45 40 77 106 22 47 38 87 35 89 -2 3 -18 -11 -36 -31z"/>
<path d="M4467 4235 c-9 -20 -17 -41 -17 -48 0 -7 9 8 20 32 24 52 21 66 -3
16z"/>
<path d="M4806 4059 c-167 -20 -344 -101 -461 -211 -79 -74 -124 -133 -170
-227 -129 -260 -118 -555 31 -853 115 -232 277 -440 551 -709 199 -197 277
-267 488 -444 109 -91 115 -96 160 -130 21 -16 64 -49 94 -73 110 -86 200
-152 206 -152 10 0 267 191 395 294 712 573 1093 1044 1202 1486 30 119 30
323 0 431 -82 302 -323 512 -670 584 -93 19 -295 19 -387 0 -186 -39 -404
-202 -503 -377 -15 -27 -31 -48 -37 -48 -5 0 -23 24 -40 52 -37 64 -143 178
-213 230 -70 52 -179 102 -274 127 -94 24 -264 33 -372 20z m351 -731 c8 -10
64 -816 63 -896 0 -7 5 -10 10 -7 6 3 10 17 10 30 0 28 16 35 84 35 40 0 57 5
71 20 22 25 89 44 124 35 14 -3 43 -17 63 -31 30 -19 51 -24 102 -24 l65 0 33
68 c43 87 64 90 93 12 30 -83 38 -91 47 -50 4 19 19 201 33 405 26 378 31 406
68 392 11 -4 16 -33 21 -114 4 -59 11 -151 16 -203 5 -52 14 -202 21 -333 11
-209 14 -234 25 -207 13 30 14 30 87 30 61 0 77 3 92 20 42 46 120 47 184 0
26 -18 44 -20 159 -20 77 0 133 4 137 10 9 15 61 12 75 -4 15 -20 9 -56 -12
-70 -12 -7 -27 -7 -51 2 -24 9 -72 10 -163 6 l-130 -7 -44 32 c-54 39 -77 39
-125 1 -32 -26 -46 -30 -96 -30 -42 0 -59 -4 -59 -13 0 -35 -41 -411 -46 -418
-11 -19 -44 -9 -50 15 -3 13 -15 196 -27 406 -12 210 -25 378 -29 374 -5 -4
-8 -32 -8 -63 -1 -41 -25 -339 -29 -358 -1 -2 -9 -3 -19 -3 -23 0 -42 19 -42
42 0 11 -11 23 -26 28 -14 6 -31 23 -37 40 -14 38 -20 38 -38 -2 -13 -30 -19
-34 -69 -39 -103 -11 -144 -6 -183 24 -46 35 -86 35 -127 0 -23 -19 -46 -28
-85 -31 l-53 -4 -6 -47 c-3 -25 -13 -120 -21 -210 -9 -90 -18 -168 -21 -172
-8 -14 -44 -11 -49 4 -2 6 -11 120 -20 252 -20 312 -35 526 -38 545 -2 8 -8
-81 -15 -198 -6 -118 -14 -218 -17 -223 -13 -20 -47 -9 -58 21 -8 20 -19 30
-37 32 -19 2 -27 11 -35 36 -5 17 -12 32 -15 32 -3 0 -12 -15 -20 -33 l-15
-32 -186 -3 c-159 -2 -188 0 -199 13 -27 32 4 40 182 45 l172 5 20 65 c18 56
24 65 45 65 21 0 27 -9 47 -65 42 -122 48 -101 68 212 26 437 35 547 41 558 9
14 31 12 42 -2z"/>
<path d="M7773 2262 c-16 -12 -29 -44 -47 -112 -13 -52 -27 -104 -31 -115 -6
-15 -4 -14 11 5 36 45 55 80 49 90 -3 4 6 39 19 76 14 38 24 69 23 70 -1 2
-12 -5 -24 -14z"/>
<path d="M7940 2235 c-7 -8 -19 -15 -26 -15 -8 0 -14 -7 -14 -16 0 -9 -13 -33
-30 -54 -16 -21 -30 -42 -30 -47 0 -4 -12 -26 -26 -47 -34 -49 -8 -35 43 24
45 51 99 140 86 140 -4 0 -1 4 7 10 8 5 12 12 9 15 -4 3 -12 -1 -19 -10z"/>
<path d="M7303 2053 c-7 -2 -13 -16 -13 -29 0 -13 -4 -24 -9 -24 -5 0 -7 10
-3 22 3 13 1 19 -5 15 -12 -8 -24 -83 -16 -103 9 -25 24 -15 17 12 -5 19 -3
25 4 20 7 -4 15 10 23 36 6 24 13 46 16 51 5 8 4 8 -14 0z"/>
<path d="M7152 1581 c-7 -18 -7 -31 -2 -31 11 0 25 48 17 56 -2 3 -9 -9 -15
-25z"/>
<path d="M6265 1370 c3 -5 8 -10 11 -10 2 0 4 5 4 10 0 6 -5 10 -11 10 -5 0
-7 -4 -4 -10z"/>
<path d="M6990 1315 c0 -20 -5 -25 -24 -25 -13 0 -29 -7 -36 -15 -7 -8 -21
-15 -31 -15 -11 0 -18 -3 -18 -7 5 -33 -3 -53 -21 -53 -11 0 -23 7 -26 15 -4
8 -12 15 -20 15 -18 0 -19 -46 -1 -54 6 -3 0 -3 -16 1 -21 4 -26 2 -22 -9 4
-10 -5 -19 -27 -28 -18 -7 -44 -26 -56 -42 -13 -16 -42 -38 -63 -49 -22 -11
-42 -26 -46 -34 -3 -8 -9 -12 -14 -9 -5 3 -9 1 -9 -4 0 -5 -13 -12 -29 -15
-15 -3 -42 -18 -59 -32 -17 -14 -48 -29 -68 -32 -24 -4 -38 -12 -42 -25 -2
-10 -13 -18 -23 -18 -11 0 -19 -4 -19 -10 0 -5 5 -10 12 -10 6 0 8 -3 5 -6 -4
-4 -18 1 -31 10 -24 15 -26 15 -39 -4 -15 -22 -81 -33 -82 -13 0 22 -15 26
-39 9 -30 -19 -62 -21 -69 -3 -3 6 -6 2 -6 -10 -1 -28 -17 -30 -26 -3 -8 26
-14 25 -61 -6 -28 -19 -42 -24 -54 -17 -10 7 -21 6 -32 0 -12 -8 -23 -8 -40 1
-28 14 -116 16 -258 7 -87 -6 -109 -11 -128 -28 -16 -15 -25 -18 -30 -10 -4 6
-47 14 -101 17 -127 8 -159 15 -176 39 -12 18 -15 19 -15 5 0 -24 -36 -43 -44
-23 -7 18 -38 19 -82 3 -27 -9 -37 -9 -58 6 -14 9 -26 12 -26 7 0 -5 -6 -11
-14 -14 -19 -8 -66 5 -65 18 0 6 -7 11 -15 13 -11 2 -16 -4 -16 -17 0 -15 -6
-21 -21 -21 -11 0 -30 -5 -41 -11 -18 -9 -24 -8 -35 7 -12 16 -13 16 -13 -9 0
-15 -4 -27 -10 -27 -5 0 -10 -9 -10 -21 0 -11 -4 -17 -10 -14 -5 3 -10 21 -10
39 0 52 -14 52 -26 -1 -6 -26 -12 -38 -13 -25 0 12 -5 22 -10 22 -12 0 -41
-74 -31 -80 4 -3 1 -22 -7 -42 -11 -27 -21 -38 -40 -40 -21 -2 -30 -12 -42
-45 -8 -24 -23 -45 -32 -48 -10 -3 -30 -27 -44 -52 -17 -29 -30 -41 -35 -34
-5 9 -10 8 -19 -2 -9 -12 -8 -16 4 -21 9 -3 22 -20 30 -38 11 -27 15 -30 20
-15 11 27 26 20 19 -10 -6 -24 -5 -26 17 -19 13 5 36 10 51 13 15 3 33 11 39
19 6 8 17 14 23 14 6 0 17 14 23 30 12 31 33 41 33 16 0 -8 7 -16 15 -20 20
-7 19 3 -2 26 -22 24 -8 36 16 14 16 -15 22 -15 41 -4 18 10 24 10 27 1 7 -19
31 -16 35 4 3 16 5 16 18 2 7 -9 24 -14 36 -11 12 2 30 0 40 -6 11 -5 28 -6
39 -1 16 6 14 8 -12 8 -18 1 -33 5 -33 11 0 8 22 7 83 -5 10 -2 17 3 17 12 0
12 10 14 53 8 37 -4 48 -3 37 4 -11 8 1 11 46 11 33 0 64 3 68 7 11 11 116 12
116 2 0 -6 6 -4 14 3 12 11 11 14 -3 21 -9 4 11 5 44 3 33 -3 78 0 100 5 46
12 73 16 130 20 l40 2 -45 7 c-44 8 -44 8 15 7 62 0 97 3 280 29 109 16 138
24 226 70 26 13 52 24 59 24 7 0 50 24 96 53 67 42 82 56 78 72 -4 14 -3 16 4
7 7 -11 16 -10 45 4 21 10 37 24 37 31 0 8 5 11 10 8 6 -3 23 3 39 14 16 12
36 21 44 21 9 0 19 5 22 10 3 6 12 10 20 10 12 0 70 34 100 58 6 4 18 11 28
15 10 4 15 11 12 17 -3 5 3 10 15 10 11 0 33 11 48 25 23 21 52 33 52 22 0 -2
-21 -19 -47 -37 -27 -18 -52 -38 -58 -45 -5 -6 -71 -42 -145 -79 -74 -38 -137
-71 -140 -76 -3 -4 -21 -15 -40 -25 -63 -32 -170 -119 -170 -137 0 -4 7 -8 16
-8 8 0 12 -4 9 -10 -4 -6 2 -7 18 -1 35 14 92 50 89 57 -2 3 0 9 4 12 4 4 3 1
-1 -7 -6 -11 -4 -13 9 -8 10 4 20 7 22 7 3 0 3 4 0 9 -3 5 2 8 11 7 9 0 22 10
29 22 17 34 113 86 146 79 21 -4 21 -4 -3 -6 -14 0 -34 -11 -45 -23 l-19 -22
25 15 c14 9 59 26 100 39 65 21 72 25 50 32 -20 6 -17 7 11 4 28 -3 42 1 62
20 14 13 31 24 38 24 6 0 9 6 6 13 -4 10 2 13 21 10 15 -2 21 0 14 3 -6 3 -10
10 -7 15 4 5 18 1 33 -9 15 -10 23 -12 18 -4 -4 7 -2 19 4 27 9 11 9 15 1 15
-15 0 -14 30 2 30 6 0 4 5 -6 11 -9 6 -15 15 -11 20 3 6 -2 16 -12 23 -14 10
-14 15 -4 21 9 5 15 4 18 -3 5 -17 22 -15 22 3 0 8 4 15 9 15 5 0 13 10 17 22
4 13 14 28 23 35 13 11 14 14 2 22 -11 7 -9 10 8 16 12 3 19 11 16 16 -4 5 5
14 20 21 18 8 24 17 19 30 -4 12 -1 16 8 13 9 -4 17 8 24 35 9 32 9 40 -2 40
-8 0 -14 -11 -14 -25z m-250 -209 c0 -3 -4 -8 -10 -11 -5 -3 -10 -1 -10 4 0 6
5 11 10 11 6 0 10 -2 10 -4z m100 -146 c0 -5 -4 -10 -10 -10 -5 0 -10 5 -10
10 0 6 5 10 10 10 6 0 10 -4 10 -10z m-393 -56 c-3 -3 -12 -4 -19 -1 -8 3 -5
6 6 6 11 1 17 -2 13 -5z m-347 -94 c0 -5 -4 -10 -10 -10 -5 0 -10 5 -10 10 0
6 5 10 10 10 6 0 10 -4 10 -10z m-1170 -346 c0 -2 -9 -4 -21 -4 -11 0 -18 4
-14 10 5 8 35 3 35 -6z m-468 -16 c-9 -9 -15 -9 -24 0 -9 9 -7 12 12 12 19 0
21 -3 12 -12z m385 6 c-3 -3 -12 -4 -19 -1 -8 3 -5 6 6 6 11 1 17 -2 13 -5z
m-313 -70 c4 -10 1 -14 -6 -12 -15 5 -23 28 -10 28 5 0 13 -7 16 -16z"/>
<path d="M6175 630 c-3 -5 -1 -10 4 -10 6 0 11 5 11 10 0 6 -2 10 -4 10 -3 0
-8 -4 -11 -10z"/>
<path d="M6058 563 c7 -3 16 -2 19 1 4 3 -2 6 -13 5 -11 0 -14 -3 -6 -6z"/>
<path d="M5800 544 c-47 -7 -91 -13 -98 -13 -7 -1 -11 -5 -8 -9 6 -10 176 -5
252 7 31 4 59 4 69 -2 17 -9 101 10 90 21 -2 3 -18 -1 -34 -8 -17 -7 -39 -9
-48 -5 -17 7 -16 8 2 15 30 12 -125 8 -225 -6z"/>
<path d="M5615 520 c-4 -6 9 -10 32 -10 28 0 34 3 23 10 -20 13 -47 13 -55 0z"/>
<path d="M5575 489 c52 -10 144 -10 170 1 13 5 -22 8 -95 8 -87 0 -105 -2 -75
-9z"/>
<path d="M5248 483 c7 -3 16 -2 19 1 4 3 -2 6 -13 5 -11 0 -14 -3 -6 -6z"/>
<path d="M4336 381 c-7 -11 28 -21 44 -11 8 5 7 9 -5 14 -23 8 -33 8 -39 -3z"/>
<path d="M4344 326 c-20 -18 -24 -25 -13 -26 8 0 21 6 28 13 6 6 16 12 22 12
5 0 9 4 10 10 1 19 -19 15 -47 -9z"/>
</g>
</svg>
